# xmcd
#
# Track frame offsets:
#	150
#	11610
#	24534
#	39008
#	50062
#	66806
#	84121
#	101066
#	114385
#	131429
#	150718
#	166322
#	184708
#	203835
#	215863
#	230411
#	246172
#	266041
#	280107
#	297490
#	308718
#	323041
#	342413
#
# Disc length: 4798
#
# Revision: 1
# Processed by: cddbd v1.5.1PL0 Copyright (c) Steve Scherf et al.
# Submitted via: audiograbber 1.82.02
# Normalized: r0:DSETVAR1
#
DISCID=4812bc17
DTITLE=Various Artist - DJ 4our 5ive - The Music Tells The Story (R&B Episode 9)
DYEAR=2004
DGENRE=R&B
TTITLE0=Thug City Feat Noe$ - A5
TTITLE1=Joe - Sweeter Than Sugar
TTITLE2=Twista Feat. Kanye West and Jaime Foxx - Slow Jamz
TTITLE3=Cheri Dennis Feat. Missy Elliot - Wrapped Around Me
TTITLE4=Chingy Feat J Weav - One Call Away
TTITLE5=Musiq - Infacueighties
TTITLE6=Rashad Feat. Jadakiss and Sheek - Sweet Misery (Remix)
TTITLE7=Anthony Hamilton Feat. Jay-Z - Mama Knew Love (4our 5ive Remix)
TTITLE8=Christina Milian Feat. Fabolous - Dip It Low
TTITLE9=Mya Feat. Fabolous - Taste This (Remix)
TTITLE10=Glenn Lewis Feat. Kardinall Offishal - Back For More
TTITLE11=JS Feat. R. Kelly - Love Angel
TTITLE12=Carl Thomas - Make It Alright
TTITLE13=Musiq Feat. DJ Aktive and Carol Riddick - Soulstar
TTITLE14=Anthony Hamilton - Since I Seen't You
TTITLE15=Missy Elliot Feat. Fabolous - Is This Our Last Time
TTITLE16=Missy Elliot Feat. R. Kelly - Dats What I'm Talkin About
TTITLE17=Mario Winans Feat. P. Diddy - I Don't Wanna Know
TTITLE18=Beyonce Feat. Graph and Mase - Me, Myself and I (4our 5ive Remix)
TTITLE19=B2K Feat. Fabolous - Badaboom
TTITLE20=Kieran - R U Awake
TTITLE21=Cheri Dennis - Tripping
TTITLE22=Usher Feat. Lil Jon and Ludacris - Yeah
EXTD=
EXTT0=
EXTT1=
EXTT2=
EXTT3=
EXTT4=
EXTT5=
EXTT6=
EXTT7=
EXTT8=
EXTT9=
EXTT10=
EXTT11=
EXTT12=
EXTT13=
EXTT14=
EXTT15=
EXTT16=
EXTT17=
EXTT18=
EXTT19=
EXTT20=
EXTT21=
EXTT22=
PLAYORDER=
